<mxfile host="app.diagrams.net" modified="2023-05-26T11:57:13.953Z" agent="Mozilla/5.0 (Windows NT 10.0; Win64; x64; rv:109.0) Gecko/20100101 Firefox/113.0" etag="pthlxzPrtBWdrN0DMSmV" version="21.3.4" type="device">
  <diagram name="第 1 页" id="EMw2FInIhMAik6JxDhVM">
    <mxGraphModel dx="1774" dy="923" grid="1" gridSize="10" guides="1" tooltips="1" connect="1" arrows="1" fold="1" page="1" pageScale="1" pageWidth="827" pageHeight="1169" math="0" shadow="0">
      <root>
        <mxCell id="0" />
        <mxCell id="1" parent="0" />
        <mxCell id="tH5lNM-xD5oUHfcreBDO-40" value="" style="rounded=0;whiteSpace=wrap;html=1;" vertex="1" parent="1">
          <mxGeometry x="700" y="230" width="400" height="350" as="geometry" />
        </mxCell>
        <mxCell id="tH5lNM-xD5oUHfcreBDO-39" value="" style="rounded=0;whiteSpace=wrap;html=1;" vertex="1" parent="1">
          <mxGeometry x="680" y="249" width="400" height="350" as="geometry" />
        </mxCell>
        <mxCell id="tH5lNM-xD5oUHfcreBDO-4" value="" style="rounded=0;whiteSpace=wrap;html=1;" vertex="1" parent="1">
          <mxGeometry x="660" y="270" width="400" height="350" as="geometry" />
        </mxCell>
        <mxCell id="tH5lNM-xD5oUHfcreBDO-2" value="" style="rounded=0;whiteSpace=wrap;html=1;" vertex="1" parent="1">
          <mxGeometry x="60" y="160" width="550" height="460" as="geometry" />
        </mxCell>
        <mxCell id="tH5lNM-xD5oUHfcreBDO-7" style="edgeStyle=orthogonalEdgeStyle;rounded=0;orthogonalLoop=1;jettySize=auto;html=1;" edge="1" parent="1" source="tH5lNM-xD5oUHfcreBDO-1" target="tH5lNM-xD5oUHfcreBDO-6">
          <mxGeometry relative="1" as="geometry" />
        </mxCell>
        <mxCell id="tH5lNM-xD5oUHfcreBDO-1" value="&lt;div&gt;&lt;b&gt;&lt;font style=&quot;font-size: 18px;&quot;&gt;kubectl&lt;/font&gt;&lt;/b&gt;&lt;/div&gt;" style="rounded=1;whiteSpace=wrap;html=1;" vertex="1" parent="1">
          <mxGeometry x="459" y="30" width="120" height="50" as="geometry" />
        </mxCell>
        <mxCell id="tH5lNM-xD5oUHfcreBDO-3" value="&lt;b&gt;&lt;font style=&quot;font-size: 18px;&quot;&gt;控制面 Master&lt;/font&gt;&lt;/b&gt;" style="text;html=1;strokeColor=none;fillColor=none;align=center;verticalAlign=middle;whiteSpace=wrap;rounded=0;" vertex="1" parent="1">
          <mxGeometry x="260" y="640" width="150" height="30" as="geometry" />
        </mxCell>
        <mxCell id="tH5lNM-xD5oUHfcreBDO-5" value="&lt;b&gt;&lt;font style=&quot;font-size: 18px;&quot;&gt;工作节点 Worker&lt;br&gt;&lt;/font&gt;&lt;/b&gt;" style="text;html=1;strokeColor=none;fillColor=none;align=center;verticalAlign=middle;whiteSpace=wrap;rounded=0;" vertex="1" parent="1">
          <mxGeometry x="785" y="640" width="150" height="30" as="geometry" />
        </mxCell>
        <mxCell id="tH5lNM-xD5oUHfcreBDO-8" value="" style="rounded=1;whiteSpace=wrap;html=1;" vertex="1" parent="1">
          <mxGeometry x="90" y="220" width="240" height="379" as="geometry" />
        </mxCell>
        <mxCell id="tH5lNM-xD5oUHfcreBDO-15" style="edgeStyle=orthogonalEdgeStyle;rounded=0;orthogonalLoop=1;jettySize=auto;html=1;entryX=1;entryY=0.5;entryDx=0;entryDy=0;" edge="1" parent="1" source="tH5lNM-xD5oUHfcreBDO-6" target="tH5lNM-xD5oUHfcreBDO-9">
          <mxGeometry relative="1" as="geometry" />
        </mxCell>
        <mxCell id="tH5lNM-xD5oUHfcreBDO-18" style="edgeStyle=orthogonalEdgeStyle;rounded=0;orthogonalLoop=1;jettySize=auto;html=1;exitX=0;exitY=0.5;exitDx=0;exitDy=0;entryX=1;entryY=0.5;entryDx=0;entryDy=0;" edge="1" parent="1" source="tH5lNM-xD5oUHfcreBDO-6" target="tH5lNM-xD5oUHfcreBDO-10">
          <mxGeometry relative="1" as="geometry" />
        </mxCell>
        <mxCell id="tH5lNM-xD5oUHfcreBDO-19" style="edgeStyle=orthogonalEdgeStyle;rounded=0;orthogonalLoop=1;jettySize=auto;html=1;exitX=0;exitY=0.5;exitDx=0;exitDy=0;entryX=1;entryY=0.5;entryDx=0;entryDy=0;" edge="1" parent="1" source="tH5lNM-xD5oUHfcreBDO-6" target="tH5lNM-xD5oUHfcreBDO-11">
          <mxGeometry relative="1" as="geometry" />
        </mxCell>
        <mxCell id="tH5lNM-xD5oUHfcreBDO-20" style="edgeStyle=orthogonalEdgeStyle;rounded=0;orthogonalLoop=1;jettySize=auto;html=1;exitX=0;exitY=0.5;exitDx=0;exitDy=0;entryX=1;entryY=0.5;entryDx=0;entryDy=0;" edge="1" parent="1" source="tH5lNM-xD5oUHfcreBDO-6" target="tH5lNM-xD5oUHfcreBDO-12">
          <mxGeometry relative="1" as="geometry" />
        </mxCell>
        <mxCell id="tH5lNM-xD5oUHfcreBDO-22" style="edgeStyle=orthogonalEdgeStyle;rounded=0;orthogonalLoop=1;jettySize=auto;html=1;exitX=0.5;exitY=1;exitDx=0;exitDy=0;entryX=0.5;entryY=0;entryDx=0;entryDy=0;" edge="1" parent="1" source="tH5lNM-xD5oUHfcreBDO-6" target="tH5lNM-xD5oUHfcreBDO-14">
          <mxGeometry relative="1" as="geometry" />
        </mxCell>
        <mxCell id="tH5lNM-xD5oUHfcreBDO-24" style="edgeStyle=orthogonalEdgeStyle;rounded=0;orthogonalLoop=1;jettySize=auto;html=1;exitX=0;exitY=0.5;exitDx=0;exitDy=0;entryX=0;entryY=0.5;entryDx=0;entryDy=0;" edge="1" parent="1" source="tH5lNM-xD5oUHfcreBDO-6" target="tH5lNM-xD5oUHfcreBDO-13">
          <mxGeometry relative="1" as="geometry" />
        </mxCell>
        <mxCell id="tH5lNM-xD5oUHfcreBDO-27" style="edgeStyle=orthogonalEdgeStyle;rounded=0;orthogonalLoop=1;jettySize=auto;html=1;exitX=0.25;exitY=0;exitDx=0;exitDy=0;entryX=0.5;entryY=1;entryDx=0;entryDy=0;" edge="1" parent="1" source="tH5lNM-xD5oUHfcreBDO-6" target="tH5lNM-xD5oUHfcreBDO-26">
          <mxGeometry relative="1" as="geometry" />
        </mxCell>
        <mxCell id="tH5lNM-xD5oUHfcreBDO-33" style="edgeStyle=orthogonalEdgeStyle;rounded=0;orthogonalLoop=1;jettySize=auto;html=1;exitX=0;exitY=0.5;exitDx=0;exitDy=0;entryX=1;entryY=0.5;entryDx=0;entryDy=0;" edge="1" parent="1" source="tH5lNM-xD5oUHfcreBDO-6" target="tH5lNM-xD5oUHfcreBDO-31">
          <mxGeometry relative="1" as="geometry" />
        </mxCell>
        <mxCell id="tH5lNM-xD5oUHfcreBDO-47" style="edgeStyle=orthogonalEdgeStyle;rounded=0;orthogonalLoop=1;jettySize=auto;html=1;exitX=1;exitY=0.5;exitDx=0;exitDy=0;entryX=0;entryY=0.5;entryDx=0;entryDy=0;" edge="1" parent="1" source="tH5lNM-xD5oUHfcreBDO-6" target="tH5lNM-xD5oUHfcreBDO-25">
          <mxGeometry relative="1" as="geometry" />
        </mxCell>
        <mxCell id="tH5lNM-xD5oUHfcreBDO-51" style="edgeStyle=orthogonalEdgeStyle;rounded=0;orthogonalLoop=1;jettySize=auto;html=1;exitX=1;exitY=0.5;exitDx=0;exitDy=0;entryX=0.5;entryY=0;entryDx=0;entryDy=0;" edge="1" parent="1" source="tH5lNM-xD5oUHfcreBDO-6" target="tH5lNM-xD5oUHfcreBDO-48">
          <mxGeometry relative="1" as="geometry">
            <Array as="points">
              <mxPoint x="640" y="316" />
              <mxPoint x="640" y="200" />
              <mxPoint x="970" y="200" />
            </Array>
          </mxGeometry>
        </mxCell>
        <mxCell id="tH5lNM-xD5oUHfcreBDO-6" value="&lt;div&gt;&lt;b&gt;&lt;font style=&quot;font-size: 18px;&quot;&gt;ApiServer&lt;/font&gt;&lt;/b&gt;&lt;/div&gt;" style="rounded=1;whiteSpace=wrap;html=1;" vertex="1" parent="1">
          <mxGeometry x="459" y="291" width="120" height="50" as="geometry" />
        </mxCell>
        <mxCell id="tH5lNM-xD5oUHfcreBDO-16" style="edgeStyle=orthogonalEdgeStyle;rounded=0;orthogonalLoop=1;jettySize=auto;html=1;" edge="1" parent="1" source="tH5lNM-xD5oUHfcreBDO-9" target="tH5lNM-xD5oUHfcreBDO-6">
          <mxGeometry relative="1" as="geometry" />
        </mxCell>
        <mxCell id="tH5lNM-xD5oUHfcreBDO-9" value="&lt;div&gt;&lt;b&gt;&lt;font style=&quot;font-size: 18px;&quot;&gt;ReplicaSet Controller&lt;br&gt;&lt;/font&gt;&lt;/b&gt;&lt;/div&gt;" style="rounded=1;whiteSpace=wrap;html=1;" vertex="1" parent="1">
          <mxGeometry x="150" y="250" width="120" height="50" as="geometry" />
        </mxCell>
        <mxCell id="tH5lNM-xD5oUHfcreBDO-10" value="&lt;div&gt;&lt;b&gt;&lt;font style=&quot;font-size: 18px;&quot;&gt;Horizontal&lt;/font&gt;&lt;/b&gt;&lt;/div&gt;&lt;div&gt;&lt;b&gt;&lt;font style=&quot;font-size: 18px;&quot;&gt;Controller&lt;/font&gt;&lt;/b&gt;&lt;/div&gt;" style="rounded=1;whiteSpace=wrap;html=1;" vertex="1" parent="1">
          <mxGeometry x="150" y="320" width="120" height="50" as="geometry" />
        </mxCell>
        <mxCell id="tH5lNM-xD5oUHfcreBDO-11" value="&lt;div&gt;&lt;b&gt;&lt;font style=&quot;font-size: 18px;&quot;&gt;Dns&lt;/font&gt;&lt;/b&gt;&lt;/div&gt;&lt;div&gt;&lt;b&gt;&lt;font style=&quot;font-size: 18px;&quot;&gt;Controller&lt;/font&gt;&lt;/b&gt;&lt;/div&gt;" style="rounded=1;whiteSpace=wrap;html=1;" vertex="1" parent="1">
          <mxGeometry x="150" y="450" width="120" height="50" as="geometry" />
        </mxCell>
        <mxCell id="tH5lNM-xD5oUHfcreBDO-12" value="&lt;div&gt;&lt;b&gt;&lt;font style=&quot;font-size: 18px;&quot;&gt;Serverless&lt;/font&gt;&lt;/b&gt;&lt;/div&gt;&lt;div&gt;&lt;b&gt;&lt;font style=&quot;font-size: 18px;&quot;&gt;Controller&lt;/font&gt;&lt;/b&gt;&lt;/div&gt;" style="rounded=1;whiteSpace=wrap;html=1;" vertex="1" parent="1">
          <mxGeometry x="150" y="519" width="120" height="50" as="geometry" />
        </mxCell>
        <mxCell id="tH5lNM-xD5oUHfcreBDO-23" style="edgeStyle=orthogonalEdgeStyle;rounded=0;orthogonalLoop=1;jettySize=auto;html=1;exitX=0;exitY=0.5;exitDx=0;exitDy=0;entryX=0;entryY=0.5;entryDx=0;entryDy=0;" edge="1" parent="1" source="tH5lNM-xD5oUHfcreBDO-13" target="tH5lNM-xD5oUHfcreBDO-6">
          <mxGeometry relative="1" as="geometry" />
        </mxCell>
        <mxCell id="tH5lNM-xD5oUHfcreBDO-13" value="&lt;div&gt;&lt;b&gt;&lt;font style=&quot;font-size: 18px;&quot;&gt;Scheduler&lt;/font&gt;&lt;/b&gt;&lt;/div&gt;" style="rounded=1;whiteSpace=wrap;html=1;" vertex="1" parent="1">
          <mxGeometry x="460" y="481" width="120" height="50" as="geometry" />
        </mxCell>
        <mxCell id="tH5lNM-xD5oUHfcreBDO-21" style="edgeStyle=orthogonalEdgeStyle;rounded=0;orthogonalLoop=1;jettySize=auto;html=1;exitX=0.5;exitY=0;exitDx=0;exitDy=0;entryX=0.5;entryY=1;entryDx=0;entryDy=0;" edge="1" parent="1" source="tH5lNM-xD5oUHfcreBDO-14" target="tH5lNM-xD5oUHfcreBDO-6">
          <mxGeometry relative="1" as="geometry" />
        </mxCell>
        <mxCell id="tH5lNM-xD5oUHfcreBDO-14" value="&lt;div&gt;&lt;b&gt;&lt;font style=&quot;font-size: 18px;&quot;&gt;GpuServer&lt;/font&gt;&lt;/b&gt;&lt;/div&gt;" style="rounded=1;whiteSpace=wrap;html=1;" vertex="1" parent="1">
          <mxGeometry x="459" y="385.5" width="120" height="50" as="geometry" />
        </mxCell>
        <mxCell id="tH5lNM-xD5oUHfcreBDO-46" style="edgeStyle=orthogonalEdgeStyle;rounded=0;orthogonalLoop=1;jettySize=auto;html=1;exitX=0.5;exitY=1;exitDx=0;exitDy=0;entryX=0.5;entryY=0;entryDx=0;entryDy=0;" edge="1" parent="1" source="tH5lNM-xD5oUHfcreBDO-25" target="tH5lNM-xD5oUHfcreBDO-45">
          <mxGeometry relative="1" as="geometry" />
        </mxCell>
        <mxCell id="tH5lNM-xD5oUHfcreBDO-53" style="edgeStyle=orthogonalEdgeStyle;rounded=0;orthogonalLoop=1;jettySize=auto;html=1;exitX=0;exitY=0.5;exitDx=0;exitDy=0;entryX=1;entryY=0.5;entryDx=0;entryDy=0;" edge="1" parent="1" source="tH5lNM-xD5oUHfcreBDO-25" target="tH5lNM-xD5oUHfcreBDO-6">
          <mxGeometry relative="1" as="geometry" />
        </mxCell>
        <mxCell id="tH5lNM-xD5oUHfcreBDO-25" value="&lt;div&gt;&lt;b&gt;&lt;font style=&quot;font-size: 18px;&quot;&gt;Kubelet&lt;/font&gt;&lt;/b&gt;&lt;/div&gt;" style="rounded=1;whiteSpace=wrap;html=1;" vertex="1" parent="1">
          <mxGeometry x="707" y="291" width="120" height="50" as="geometry" />
        </mxCell>
        <mxCell id="tH5lNM-xD5oUHfcreBDO-28" style="edgeStyle=orthogonalEdgeStyle;rounded=0;orthogonalLoop=1;jettySize=auto;html=1;exitX=0.5;exitY=1;exitDx=0;exitDy=0;entryX=0.25;entryY=0;entryDx=0;entryDy=0;" edge="1" parent="1" source="tH5lNM-xD5oUHfcreBDO-26" target="tH5lNM-xD5oUHfcreBDO-6">
          <mxGeometry relative="1" as="geometry" />
        </mxCell>
        <mxCell id="tH5lNM-xD5oUHfcreBDO-26" value="&lt;div&gt;&lt;b&gt;&lt;font style=&quot;font-size: 18px;&quot;&gt;etcd&lt;/font&gt;&lt;/b&gt;&lt;/div&gt;" style="rounded=1;whiteSpace=wrap;html=1;" vertex="1" parent="1">
          <mxGeometry x="370" y="220" width="120" height="30" as="geometry" />
        </mxCell>
        <mxCell id="tH5lNM-xD5oUHfcreBDO-30" value="&lt;font style=&quot;font-size: 18px;&quot;&gt;&lt;b&gt;&lt;font style=&quot;font-size: 18px;&quot;&gt;ControllerManager&lt;/font&gt;&lt;/b&gt;&lt;/font&gt;" style="text;whiteSpace=wrap;html=1;" vertex="1" parent="1">
          <mxGeometry x="130" y="180" width="160" height="40" as="geometry" />
        </mxCell>
        <mxCell id="tH5lNM-xD5oUHfcreBDO-31" value="&lt;div&gt;&lt;b&gt;&lt;font style=&quot;font-size: 18px;&quot;&gt;Service&lt;/font&gt;&lt;/b&gt;&lt;/div&gt;&lt;div&gt;&lt;b&gt;&lt;font style=&quot;font-size: 18px;&quot;&gt;Controller&lt;/font&gt;&lt;/b&gt;&lt;/div&gt;" style="rounded=1;whiteSpace=wrap;html=1;" vertex="1" parent="1">
          <mxGeometry x="150" y="385.5" width="120" height="50" as="geometry" />
        </mxCell>
        <mxCell id="tH5lNM-xD5oUHfcreBDO-37" style="edgeStyle=orthogonalEdgeStyle;rounded=0;orthogonalLoop=1;jettySize=auto;html=1;entryX=0.75;entryY=1;entryDx=0;entryDy=0;" edge="1" parent="1" source="tH5lNM-xD5oUHfcreBDO-34" target="tH5lNM-xD5oUHfcreBDO-2">
          <mxGeometry relative="1" as="geometry" />
        </mxCell>
        <mxCell id="tH5lNM-xD5oUHfcreBDO-38" style="edgeStyle=orthogonalEdgeStyle;rounded=0;orthogonalLoop=1;jettySize=auto;html=1;entryX=0.25;entryY=1;entryDx=0;entryDy=0;" edge="1" parent="1" source="tH5lNM-xD5oUHfcreBDO-34" target="tH5lNM-xD5oUHfcreBDO-4">
          <mxGeometry relative="1" as="geometry" />
        </mxCell>
        <mxCell id="tH5lNM-xD5oUHfcreBDO-34" value="&lt;div&gt;&lt;b&gt;&lt;font style=&quot;font-size: 18px;&quot;&gt;Node&lt;/font&gt;&lt;/b&gt;&lt;/div&gt;&lt;div&gt;&lt;b&gt;&lt;font style=&quot;font-size: 18px;&quot;&gt;Manager&lt;br&gt;&lt;/font&gt;&lt;/b&gt;&lt;/div&gt;" style="rounded=1;whiteSpace=wrap;html=1;" vertex="1" parent="1">
          <mxGeometry x="540" y="680" width="120" height="50" as="geometry" />
        </mxCell>
        <mxCell id="tH5lNM-xD5oUHfcreBDO-42" value="&lt;div&gt;&lt;b&gt;&lt;font style=&quot;font-size: 18px;&quot;&gt;flannel&lt;/font&gt;&lt;/b&gt;&lt;/div&gt;" style="rounded=1;whiteSpace=wrap;html=1;" vertex="1" parent="1">
          <mxGeometry x="910" y="555" width="120" height="50" as="geometry" />
        </mxCell>
        <mxCell id="tH5lNM-xD5oUHfcreBDO-44" style="edgeStyle=orthogonalEdgeStyle;rounded=0;orthogonalLoop=1;jettySize=auto;html=1;exitX=0;exitY=0.5;exitDx=0;exitDy=0;entryX=0;entryY=0.5;entryDx=0;entryDy=0;" edge="1" parent="1">
          <mxGeometry relative="1" as="geometry">
            <mxPoint x="707" y="575" as="sourcePoint" />
            <mxPoint x="150" y="346" as="targetPoint" />
            <Array as="points">
              <mxPoint x="707" y="581" />
              <mxPoint x="130" y="581" />
              <mxPoint x="130" y="346" />
            </Array>
          </mxGeometry>
        </mxCell>
        <mxCell id="tH5lNM-xD5oUHfcreBDO-43" value="&lt;div&gt;&lt;b&gt;&lt;font style=&quot;font-size: 18px;&quot;&gt;cadvisor&lt;/font&gt;&lt;/b&gt;&lt;/div&gt;" style="rounded=1;whiteSpace=wrap;html=1;" vertex="1" parent="1">
          <mxGeometry x="707" y="554" width="120" height="50" as="geometry" />
        </mxCell>
        <mxCell id="tH5lNM-xD5oUHfcreBDO-55" style="edgeStyle=orthogonalEdgeStyle;rounded=0;orthogonalLoop=1;jettySize=auto;html=1;exitX=0.5;exitY=1;exitDx=0;exitDy=0;" edge="1" parent="1" source="tH5lNM-xD5oUHfcreBDO-54" target="tH5lNM-xD5oUHfcreBDO-43">
          <mxGeometry relative="1" as="geometry">
            <Array as="points">
              <mxPoint x="767" y="430" />
            </Array>
          </mxGeometry>
        </mxCell>
        <mxCell id="tH5lNM-xD5oUHfcreBDO-54" value="" style="rounded=1;whiteSpace=wrap;html=1;" vertex="1" parent="1">
          <mxGeometry x="717" y="380" width="120" height="50" as="geometry" />
        </mxCell>
        <mxCell id="tH5lNM-xD5oUHfcreBDO-45" value="&lt;div&gt;&lt;b&gt;&lt;font style=&quot;font-size: 18px;&quot;&gt;Container&lt;/font&gt;&lt;/b&gt;&lt;/div&gt;&lt;div&gt;&lt;b&gt;&lt;font style=&quot;font-size: 18px;&quot;&gt;Runtime&lt;br&gt;&lt;/font&gt;&lt;/b&gt;&lt;/div&gt;" style="rounded=1;whiteSpace=wrap;html=1;" vertex="1" parent="1">
          <mxGeometry x="707" y="370" width="120" height="50" as="geometry" />
        </mxCell>
        <mxCell id="tH5lNM-xD5oUHfcreBDO-50" style="edgeStyle=orthogonalEdgeStyle;rounded=0;orthogonalLoop=1;jettySize=auto;html=1;exitX=0.5;exitY=1;exitDx=0;exitDy=0;entryX=0.5;entryY=0;entryDx=0;entryDy=0;" edge="1" parent="1" source="tH5lNM-xD5oUHfcreBDO-48" target="tH5lNM-xD5oUHfcreBDO-49">
          <mxGeometry relative="1" as="geometry" />
        </mxCell>
        <mxCell id="tH5lNM-xD5oUHfcreBDO-48" value="&lt;div&gt;&lt;b&gt;&lt;font style=&quot;font-size: 18px;&quot;&gt;Kubeproxy&lt;/font&gt;&lt;/b&gt;&lt;/div&gt;" style="rounded=1;whiteSpace=wrap;html=1;" vertex="1" parent="1">
          <mxGeometry x="910" y="291" width="120" height="50" as="geometry" />
        </mxCell>
        <mxCell id="tH5lNM-xD5oUHfcreBDO-49" value="&lt;div&gt;&lt;b&gt;&lt;font style=&quot;font-size: 18px;&quot;&gt;ipvs&lt;/font&gt;&lt;/b&gt;&lt;/div&gt;" style="rounded=1;whiteSpace=wrap;html=1;" vertex="1" parent="1">
          <mxGeometry x="910" y="370" width="120" height="50" as="geometry" />
        </mxCell>
        <mxCell id="tH5lNM-xD5oUHfcreBDO-58" value="&lt;div&gt;Resource&lt;/div&gt;&lt;div&gt;Mertics&lt;br&gt;&lt;/div&gt;" style="text;html=1;strokeColor=none;fillColor=none;align=center;verticalAlign=middle;whiteSpace=wrap;rounded=0;" vertex="1" parent="1">
          <mxGeometry x="777" y="470" width="60" height="30" as="geometry" />
        </mxCell>
      </root>
    </mxGraphModel>
  </diagram>
</mxfile>
